<?xml version="1.0" encoding="UTF-8"?>
<svg id="Layer_2" data-name="Layer 2" xmlns="http://www.w3.org/2000/svg" viewBox="0 0 280 280">
  <defs>
    <style>
      .cls-1, .cls-2 {
        fill: none;
      }

      .cls-3 {
        fill: #fff;
      }

      .cls-3, .cls-2 {
        stroke: #2b2018;
        stroke-miterlimit: 10;
        stroke-width: 2px;
      }

      .cls-2 {
        stroke-linecap: round;
      }
    </style>
  </defs>
  <g id="OBJECTS">
    <g>
      <g>
        <ellipse class="cls-3" cx="142.76" cy="197.84" rx="28.82" ry="45.24" transform="translate(-63.55 328.08) rotate(-86.45)"/>
        <path class="cls-3" d="M102.82,183.83c-17.56-15.37-22.54-26.01-44.89-24.64-25.7,1.58-28.7-34.76,5.67-36.43,26.96-1.31,39.89,10.14,39.89,10.14,0,0-4.36-31.4-2.21-55.21,4.13-45.67,19.13-51.36,32.01-44.75,14.83,7.62-1.81,69.38,8.15,73.86,9.96,4.48,13.5-44.06,18.13-59.24,7.93-26.03,35.95-16.52,35.54,1.38-.41,17.89-23.63,62.48-14.45,61.17,9.18-1.31,26.21-36.83,40.79-34.92,14.57,1.91,29.02,20.34,8.36,38.86-20.66,18.52-31.99,20.39-31.39,38.72.6,18.33-34.38,84.62-95.59,31.07Z"/>
        <path class="cls-2" d="M113.43,139.08s40.15-4.58,48.86,31.08"/>
      </g>
      <rect class="cls-1" width="280" height="280"/>
    </g>
  </g>
</svg>