<?xml version="1.0" encoding="UTF-8"?>
<svg id="Layer_2" data-name="Layer 2" xmlns="http://www.w3.org/2000/svg" viewBox="0 0 280 280">
  <defs>
    <style>
      .cls-1, .cls-2 {
        fill: none;
      }

      .cls-3 {
        fill: #fff;
      }

      .cls-3, .cls-2 {
        stroke: #2b2018;
        stroke-miterlimit: 10;
        stroke-width: 2px;
      }

      .cls-2 {
        stroke-linecap: round;
      }
    </style>
  </defs>
  <g id="OBJECTS">
    <g>
      <g>
        <g>
          <path class="cls-3" d="M114.97,195.07c-25.86-6.6-56.72-49.17-14.44-66.88,2.29-10.57-18.82-61.84-13.18-79.9,4.18-13.39,23.7-23.42,35.96,1.95,15.04,31.13,0,68.04,10.05,68.32,8.8.24,13.94-55.69,12.77-72.14-1.41-19.86,28.88-26.2,36.06,5.5,5.15,22.76-10.82,50.55-14.85,59.88-.46,1.08.75,2.1,1.74,1.47,15.89-10.31,39.02,10.28,27.42,23.82,0,0,14.34,31.62-12.4,48.28,0,0,21.31,10.07-3.49,25.96-24.8,15.89-63.68,11.67-73.75-1.12-10.07-12.79,8.1-15.15,8.1-15.15Z"/>
          <path class="cls-2" d="M142.31,197.57s24.12.63,41.79-12.2"/>
        </g>
        <path class="cls-2" d="M100.53,128.18c19.51-7.37,50.28,9.7,51.06,25.47.78,15.77-16.03,25.08-45.26,1.29"/>
        <path class="cls-2" d="M178.74,120.71c-13.27,3.74-35.44,21.94-17.18,35.18,14.88,10.79,34.94-18.79,34.94-18.79"/>
      </g>
      <rect class="cls-1" width="280" height="280"/>
    </g>
  </g>
</svg>