<?xml version="1.0" encoding="UTF-8"?>
<svg id="Layer_2" data-name="Layer 2" xmlns="http://www.w3.org/2000/svg" viewBox="0 0 280 280">
  <defs>
    <style>
      .cls-1, .cls-2 {
        fill: none;
      }

      .cls-3 {
        fill: #fff;
      }

      .cls-3, .cls-2 {
        stroke: #2b2018;
        stroke-miterlimit: 10;
        stroke-width: 2px;
      }

      .cls-2 {
        stroke-linecap: round;
      }
    </style>
  </defs>
  <g id="OBJECTS">
    <g>
      <g>
        <path class="cls-3" d="M195.93,160.68s20.67,20.14-1.52,47.51c-25.7,31.7-87.63,20.99-77.57-22.66l79.09-24.85Z"/>
        <path class="cls-3" d="M137.44,199.6c-12.9.7-25.83-2.46-36.61-9.59-6.68-4.42-13.25-10.76-17.75-19.79-13.93-27.94,5.39-45.95,5.39-45.95,0,0-28.58-31.16-7.99-49.01,20.58-17.85,41,.49,41,.49,0,0,4.29-21.21,22.8-22.21,17.92-.96,24.97,18.61,24.97,18.61,0,0,13.17-13.65,28.56,5.8,15.39,19.46.2,46.33.2,46.33,0,0,43.34,69.66-60.56,75.31Z"/>
        <path class="cls-2" d="M104.76,116.28s55.28-4.72,62.31,21.87c8.16,30.87-34.51,27.26-52.06,17.49"/>
        <path class="cls-2" d="M137.29,162.36s17.73,2.93,14.54,22.86"/>
        <path class="cls-2" d="M133.24,116.09s.75-26.86-13.53-41.73"/>
        <path class="cls-2" d="M198.01,124.29c-8.65,16.03-28.77,20.18-36.15,2.05"/>
        <path class="cls-2" d="M169.25,72.16c7.03,15.88.27,42.29-8.87,55.4"/>
      </g>
      <rect class="cls-1" width="280" height="280"/>
    </g>
  </g>
</svg>