<?xml version="1.0" encoding="UTF-8"?>
<svg id="Layer_2" data-name="Layer 2" xmlns="http://www.w3.org/2000/svg" viewBox="0 0 280 280">
  <defs>
    <style>
      .cls-1 {
        fill: #2d2017;
      }

      .cls-1, .cls-2, .cls-3 {
        stroke: #2b2018;
        stroke-miterlimit: 10;
        stroke-width: 2px;
      }

      .cls-4, .cls-3 {
        fill: none;
      }

      .cls-2 {
        fill: #fff;
      }

      .cls-3 {
        stroke-linecap: round;
      }
    </style>
  </defs>
  <g id="OBJECTS">
    <g>
      <g>
        <path class="cls-1" d="M131.91,127.07h0c8.41-2.25,16.72,3.68,17.5,12.35,2.94,32.84,10.88,62.46,24.14,90.23,3.75,7.85-.58,17.18-8.99,19.43h0c-6.63,1.77-13.55-1.55-16.36-7.81-14.21-31.65-23.06-64.74-26.56-99.26-.69-6.83,3.64-13.16,10.27-14.94Z"/>
        <ellipse class="cls-2" cx="137.32" cy="155.26" rx="33.77" ry="21.51" transform="translate(-9.35 8.8) rotate(-3.55)"/>
        <path class="cls-2" d="M167.13,144.8c13.11-11.47,16.83-19.42,33.51-18.4,19.19,1.18,21.42-25.95-4.23-27.2-20.12-.98-29.78,7.57-29.78,7.57,0,0,3.26-23.44,1.65-41.22-3.08-34.09-14.28-38.35-23.9-33.41-11.07,5.69,1.35,51.79-6.08,55.14-7.43,3.35-10.08-32.9-13.53-44.23-5.92-19.43-26.84-12.33-26.53,1.03.3,13.36,17.64,46.64,10.79,45.66-6.85-.98-19.57-27.5-30.45-26.07-10.88,1.42-21.66,15.19-6.24,29.01,15.42,13.82,23.88,15.22,23.43,28.91-.45,13.68,25.67,63.17,71.36,23.2Z"/>
        <path class="cls-3" d="M159.21,111.39s-29.98-3.42-36.47,23.21"/>
      </g>
      <rect class="cls-4" width="280" height="280" transform="translate(280 280) rotate(180)"/>
    </g>
  </g>
</svg>