<?xml version="1.0" encoding="UTF-8"?>
<svg id="Layer_2" data-name="Layer 2" xmlns="http://www.w3.org/2000/svg" viewBox="0 0 280 280">
  <defs>
    <style>
      .cls-1 {
        fill: #2d2017;
      }

      .cls-1, .cls-2, .cls-3 {
        stroke: #2b2018;
        stroke-miterlimit: 10;
        stroke-width: 2px;
      }

      .cls-4, .cls-3 {
        fill: none;
      }

      .cls-2 {
        fill: #fff;
      }

      .cls-3 {
        stroke-linecap: round;
      }
    </style>
  </defs>
  <g id="OBJECTS">
    <g>
      <g>
        <path class="cls-1" d="M122.09,249.52h0c9.56.61,17.3-7.58,16.21-17.09-3.95-34.58-1.76-68.76,6.59-102.54,2.3-9.3-4.33-18.41-13.89-19.03h0c-7.53-.48-14.28,4.59-15.96,11.95-8.51,37.21-10.92,74.81-7.25,112.81.73,7.52,6.77,13.41,14.3,13.9Z"/>
        <path class="cls-2" d="M98.25,110.45s-15.43,15.04,1.13,35.47c19.19,23.67,65.42,15.67,57.91-16.92l-59.05-18.55Z"/>
        <path class="cls-2" d="M141.91,139.51c9.63.52,19.29-1.84,27.33-7.16,4.99-3.3,9.89-8.03,13.25-14.77,10.4-20.86-4.02-34.3-4.02-34.3,0,0,21.34-23.26,5.97-36.59-15.37-13.32-30.61.37-30.61.37,0,0-3.2-15.84-17.02-16.58-13.38-.72-18.64,13.89-18.64,13.89,0,0-9.83-10.19-21.32,4.33-11.49,14.53-.15,34.59-.15,34.59,0,0-32.36,52,45.21,56.22Z"/>
        <path class="cls-3" d="M166.31,77.31s-41.27-3.53-46.52,16.33c-6.09,23.04,25.77,20.35,38.86,13.06"/>
        <path class="cls-3" d="M142.02,111.71s-13.24,2.19-10.86,17.07"/>
        <path class="cls-3" d="M145.05,77.17s-.56-20.05,10.1-31.16"/>
        <path class="cls-3" d="M96.69,83.29c6.46,11.97,21.48,15.07,26.99,1.53"/>
        <path class="cls-3" d="M118.16,44.37c-5.25,11.85-.2,31.57,6.62,41.36"/>
      </g>
      <rect class="cls-4" width="280" height="280" transform="translate(280 280) rotate(180)"/>
    </g>
  </g>
</svg>