<?xml version="1.0" encoding="UTF-8"?>
<svg id="Layer_2" data-name="Layer 2" xmlns="http://www.w3.org/2000/svg" viewBox="0 0 280 280">
  <defs>
    <style>
      .cls-1 {
        fill: #2d2017;
      }

      .cls-1, .cls-2, .cls-3 {
        stroke: #2b2018;
        stroke-miterlimit: 10;
        stroke-width: 2px;
      }

      .cls-4, .cls-3 {
        fill: none;
      }

      .cls-2 {
        fill: #fff;
      }

      .cls-3 {
        stroke-linecap: round;
      }
    </style>
  </defs>
  <g id="OBJECTS">
    <g>
      <g>
        <path class="cls-1" d="M136.5,137.09h0c7.79-.24,13.87,6.64,12.72,14.35-4.16,28.03-3.31,55.9,2.56,83.62,1.62,7.63-4.03,14.86-11.82,15.1h0c-6.14.19-11.49-4.13-12.66-10.16-5.91-30.51-6.85-61.17-2.82-91.99.8-6.1,5.87-10.73,12.02-10.92Z"/>
        <g>
          <path class="cls-2" d="M158.69,153.19c19.31-4.93,42.35-36.71,10.78-49.93-1.71-7.89,14.05-46.17,9.84-59.65-3.12-9.99-17.7-17.49-26.85,1.46-11.23,23.24,0,50.8-7.5,51-6.57.18-10.41-41.57-9.54-53.85,1.05-14.83-21.56-19.56-26.92,4.11-3.85,16.99,8.08,37.73,11.09,44.71.35.8-.56,1.57-1.3,1.09-11.87-7.7-29.13,7.67-20.47,17.78,0,0-10.7,23.61,9.26,36.05,0,0-15.91,7.52,2.6,19.38,18.51,11.86,47.54,8.71,55.06-.84,7.52-9.55-6.05-11.31-6.05-11.31Z"/>
          <path class="cls-3" d="M138.27,155.06s-18.01.47-31.2-9.11"/>
        </g>
        <path class="cls-3" d="M169.47,103.26c-14.56-5.5-37.54,7.24-38.12,19.02-.58,11.78,11.97,18.73,33.79.97"/>
        <path class="cls-3" d="M111.08,97.67c9.9,2.8,26.46,16.38,12.83,26.26-11.11,8.05-26.09-14.03-26.09-14.03"/>
      </g>
      <rect class="cls-4" width="280" height="280" transform="translate(280 280) rotate(180)"/>
    </g>
  </g>
</svg>